<svg xmlns="http://www.w3.org/2000/svg" width="430" height="430" style="width:100%;height:100%;transform:translate3d(0,0,0);content-visibility:visible" viewBox="0 0 430 430"><defs><filter id="a" width="100%" height="100%" x="0%" y="0%" filterUnits="objectBoundingBox"><feComponentTransfer in="SourceGraphic"><feFuncA tableValues="1.0 0.0" type="table"/></feComponentTransfer></filter><filter id="c" width="100%" height="100%" x="0%" y="0%" filterUnits="objectBoundingBox"><feComponentTransfer in="SourceGraphic"><feFuncA tableValues="1.0 0.0" type="table"/></feComponentTransfer></filter><filter id="e" width="100%" height="100%" x="0%" y="0%" filterUnits="objectBoundingBox"><feComponentTransfer in="SourceGraphic"><feFuncA tableValues="1.0 0.0" type="table"/></feComponentTransfer></filter><filter id="g" width="100%" height="100%" x="0%" y="0%" filterUnits="objectBoundingBox"><feComponentTransfer in="SourceGraphic"><feFuncA tableValues="1.0 0.0" type="table"/></feComponentTransfer></filter><path id="b" fill="red" d="M261.398 273.839c.036.016.04.03.05.034l.027.013s-9.994-224.961-46.881-243.508c-17.732-8.92-42.63 9.383-62.651 21.794-11.931 7.39-18.522 20.956-17.035 34.923.14 1.356.217 2.705.196 4.053a33.353 33.353 0 0 1-5.2 17.469l-3.638 5.718c-14.725 23.179-8.99 53.824 13.145 70.103l8.51 6.264m-3.694 167.712c44.77-.915 88.826-42.105 88.826-42.105s7.353-17.448 12.27-24.798c4.548-6.795 16.148-17.616 16.148-17.616s-103.277-101.342-142.59-85.988c-11.712 4.58-10.23 22.318-10.766 35.96-.352 9.203-3.645 18.04-9.362 25.26-23.518 29.682-17.539 72.986 13.141 95.192 9.8 7.096 21.114 14.325 32.333 14.095z" style="display:block"/><path id="h" style="display:none"/><path id="f" style="display:none"/><path id="d" style="display:none"/><mask id="o" mask-type="alpha"><g filter="url(#a)"><path fill="#fff" d="M0 0h430v430H0z" opacity="0"/><use xmlns:ns1="http://www.w3.org/1999/xlink" ns1:href="#b"/></g></mask><mask id="k" mask-type="alpha"><g filter="url(#c)"><path fill="#fff" d="M0 0h430v430H0z" opacity="0"/><use xmlns:ns2="http://www.w3.org/1999/xlink" ns2:href="#d"/></g></mask><mask id="l" mask-type="alpha"><g filter="url(#e)"><path fill="#fff" d="M0 0h430v430H0z" opacity="0"/><use xmlns:ns3="http://www.w3.org/1999/xlink" ns3:href="#f"/></g></mask><mask id="m" mask-type="alpha"><g filter="url(#g)"><path fill="#fff" d="M0 0h430v430H0z" opacity="0"/><use xmlns:ns4="http://www.w3.org/1999/xlink" ns4:href="#h"/></g></mask><clipPath id="i"><path d="M0 0h430v430H0z"/></clipPath><clipPath id="n"><path d="M0 0h430v430H0z"/></clipPath><clipPath id="j"><path d="M0 0h430v430H0z"/></clipPath></defs><g clip-path="url(#i)"><g clip-path="url(#j)" style="display:none"><g style="display:none"><path class="quaternary"/><path class="quaternary" style="mix-blend-mode:multiply"/><path class="quaternary"/><path class="quaternary" style="mix-blend-mode:multiply"/></g><g style="display:none"><path class="secondary"/><path class="secondary" style="mix-blend-mode:multiply"/><path class="tertiary"/><path class="tertiary" style="mix-blend-mode:multiply"/><path class="tertiary"/><path class="tertiary" style="mix-blend-mode:multiply"/><path class="secondary"/><path class="secondary" style="mix-blend-mode:multiply"/><path class="secondary"/><path class="secondary" style="mix-blend-mode:multiply"/></g><g fill="none" mask="url(#k)" style="display:none"><path class="primary"/><path class="primary"/><path class="primary"/></g><path fill="none" class="primary" style="display:none"/><g style="display:none"><path class="quaternary"/><path class="quaternary" style="mix-blend-mode:multiply"/><path class="quaternary"/><path class="quaternary" style="mix-blend-mode:multiply"/></g><g style="display:none"><path class="secondary"/><path class="secondary" style="mix-blend-mode:multiply"/><path class="tertiary"/><path class="tertiary" style="mix-blend-mode:multiply"/><path class="tertiary"/><path class="tertiary" style="mix-blend-mode:multiply"/><path class="secondary"/><path class="secondary" style="mix-blend-mode:multiply"/><path class="secondary"/><path class="secondary" style="mix-blend-mode:multiply"/></g><g fill="none" mask="url(#l)" style="display:none"><path class="primary"/><path class="primary"/><path class="primary"/></g><path fill="none" class="primary" style="display:none"/><g style="display:none"><path class="quaternary"/><path class="quaternary" style="mix-blend-mode:multiply"/><path class="quaternary"/><path class="quaternary" style="mix-blend-mode:multiply"/></g><g style="display:none"><path class="secondary"/><path class="secondary" style="mix-blend-mode:multiply"/><path class="tertiary"/><path class="tertiary" style="mix-blend-mode:multiply"/><path class="tertiary"/><path class="tertiary" style="mix-blend-mode:multiply"/><path class="secondary"/><path class="secondary" style="mix-blend-mode:multiply"/><path class="secondary"/><path class="secondary" style="mix-blend-mode:multiply"/></g><g fill="none" mask="url(#m)" style="display:none"><path class="primary"/><path class="primary"/><path class="primary"/></g><path fill="none" class="primary" style="display:none"/></g><g clip-path="url(#n)" style="display:block"><g fill="#F9C9C0" style="display:block"><path d="M268.632 329.101c-11.21 27.67-28.07 46.96-37.67 43.07-5.27-2.13-7.25-10.8-6.11-22.76.93-9.84 3.97-21.9 9.03-34.39 5.33-13.17 11.95-24.44 18.45-32.22 3.79-4.53 7.54-7.88 10.98-9.72l3.34 4.27c1.28 1.64 2.95 2.92 4.86 3.73l6.36 2.72c1.15 10.86-2.1 27.66-9.24 45.3z" class="quaternary"/><path d="M21.661-44.195a62.227 62.227 0 0 0-3.76 4.12c-6.5 7.78-13.12 19.05-18.45 32.22-5.06 12.49-8.1 24.55-9.03 34.39-.94 9.84.24 17.45 3.62 21.03-3.46 2.12-6.64 2.8-9.28 1.73-5.27-2.13-7.25-10.8-6.11-22.76.93-9.84 3.97-21.9 9.03-34.39 5.33-13.17 11.95-24.44 18.45-32.22 3.79-4.53 7.54-7.88 10.98-9.72l3.34 4.27c.37.47.77.92 1.21 1.33z" class="quaternary" opacity=".5" style="mix-blend-mode:multiply" transform="translate(246.202 322.875)"/><path d="M270.002 250.497c-9.188 11.998-10.516 26.412-2.966 32.194 7.55 5.782 21.12.742 30.308-11.256 9.188-11.998 10.516-26.412 2.966-32.194-7.55-5.782-21.12-.742-30.308 11.256z" class="quaternary"/><path d="M9.972 19.663c-5.66 2.24-11.15 2.14-15.04-.84-7.56-5.79-6.23-20.2 2.96-32.2 2.37-3.1 5.04-5.74 7.82-7.84-10.43 14.39-11.73 31.23-2.76 38.1 2.03 1.55 4.41 2.46 7.02 2.78z" class="quaternary" opacity=".5" style="mix-blend-mode:multiply" transform="translate(272.151 263.847)"/></g><g style="display:block"><path fill="#F28BA8" d="M176.078 350.891c-7.78 3.228-15.55 5.59-22.98 6.586-2.57.349-5.1.528-7.58.528-11.22 0-22.61-6.695-32.5-13.649-18.43-12.952-28.19-33.446-28.19-54.219 0-14.118 4.51-28.365 13.88-40.45.57-.727 1.11-1.485 1.61-2.242a42.997 42.997 0 0 0 7.45-23.034c.36-13.6-1.673-32.185 10.32-35.957 14.162-4.454 31.67 1.623 43.72 8.149-34.27 61.502-29.04 130.337 14.27 154.288z" class="secondary"/><path fill="#F28BA8" d="M31.135 54.752c-2.57.349-5.1.528-7.58.528-11.22 0-22.61-6.695-32.5-13.649-18.43-12.952-28.19-33.446-28.19-54.219 0-14.118 4.51-28.365 13.88-40.45.57-.727 1.11-1.485 1.61-2.242-5.76 17.973-19.92 81.04 52.78 110.032z" class="secondary" opacity=".5" style="mix-blend-mode:multiply" transform="translate(121.963 302.725)"/><path fill="#4BB3FD" d="M260.873 273.022c0 .02-.01.04-.01.06 0 .18-.02.39-.04.59-.12.06-.24.12-.35.19-7.224 7.638-17.974 16.013-26.801 42.189-17.23 17.555-36.912 25.856-49.939 31.591-2.796 1.231-5.49 2.6-8.24 3.75h-.01c-43.29-24.05-48.58-93.14-14.31-154.87 2.92 1.47 35.121 6.077 38.083 7.843 36 21.468 53.657 61.217 61.227 68.297.08.07.16.15.24.22.05.05.1.09.15.14z" class="tertiary"/><path fill="#4BB3FD" d="M12.726 73.56c-2.74 1.35-5.49 2.6-8.24 3.75h-.01c-43.29-24.05-48.58-93.14-14.31-154.87 2.92 1.47 7.88 3.31 10.88 5.01 9.35 5.3 18.21 12.63 27.55 19.31.02.01.04.03.05.04.16.13.3.24.43.33-58.47-38.02-70 77.2-16.35 126.43z" class="tertiary" opacity=".5" style="mix-blend-mode:multiply" transform="translate(171.007 274.082)"/><path fill="#4BB3FD" d="m261.857 274.582-.02-.01c-.01-.01-.02-.02-.05-.04-.19-.19-.83-.79-1.85-1.75-11.46-10.72-68.54-66.47-111.16-82.09l-1.02-.73-7.56-5.43c0-64.08 43.38-113.73 95.69-113.74 1.18 4 2.32 8.2 3.41 12.57 1.94 7.69 3.75 15.9 5.45 24.43 0 .04.01.07.01.1.03.18.07.34.1.48 11.17 56.32 14.04 126.89 16.14 154.37.58 7.51.86 11.84.86 11.84z" class="tertiary"/><path fill="#4BB3FD" d="M52.33-22.005c-20.5-43.19-76.97-6.89-97.1 81.59l-7.56-5.43c0-64.08 43.38-113.73 95.69-113.74 1.18 4 2.32 8.2 3.41 12.57 1.94 7.69 3.75 15.9 5.45 24.43 0 .04.01.07.01.1.03.18.07.34.1.48z" class="tertiary" opacity=".5" style="mix-blend-mode:multiply" transform="translate(192.527 130.377)"/><path fill="#F28BA8" d="M186.274 157.836c0 9.596 7.779 17.375 17.375 17.375s17.375-7.779 17.375-17.375-7.779-17.375-17.375-17.375-17.375 7.779-17.375 17.375z" class="secondary"/><path fill="#F28BA8" d="M14.827 9.743c-6.78 6.78-17.783 6.78-24.563 0-6.787-6.787-6.787-17.791-.007-24.571 0 0-.413 24.26 24.57 24.571z" class="secondary" opacity=".5" style="mix-blend-mode:multiply" transform="translate(201.102 160.383)"/><path fill="#F28BA8" d="M236.225 71.248c-52.31 0-95.65 49.669-95.65 113.521-22.32-15.955-28.44-46.421-13.99-69.701l3.56-5.741a33.165 33.165 0 0 0 4.99-17.47c0-1.345-.09-2.691-.25-4.036-1.72-13.892 4.77-27.496 16.61-35.01 19.88-12.597 44.54-31.163 62.38-22.483 8.65 4.206 16.06 19.663 22.35 40.92z" class="secondary"/><path fill="#F28BA8" d="M47.552-76.104c-24.505 2.59-29.046 13.416-48.926 26.013-11.84 7.514-21.994 17.588-20.274 31.48.16 1.345.25 2.691.25 4.036 0 6.139-1.72 12.198-4.99 17.47l-3.56 5.741c-14.45 23.28-12.54 49.141 4.2 69.701-22.32-15.955-28.44-46.421-13.99-69.701l3.56-5.741a33.165 33.165 0 0 0 4.99-17.47c0-1.345-.09-2.691-.25-4.036-1.72-13.892 4.77-27.496 16.61-35.01 19.88-12.597 44.54-31.163 62.38-22.483z" class="secondary" opacity=".5" style="mix-blend-mode:multiply" transform="translate(166.255 106.432)"/></g><g mask="url(#o)" style="display:block"><path fill="none" stroke="#121331" stroke-linecap="round" stroke-linejoin="round" stroke-width="7" d="m299.134 237.461 18.026-26.317c12.296-17.824 32.555-27.751 53.706-26.5 0 0 0 0 0 0m-72.053 52.912 6.474-31.235c4.455-20.835 19.315-37.81 39.31-44.819 0 0 0 0 0 0M276.73 284.681c1.15 10.86-1.97 27.64-9.11 45.28-11.21 27.67-28.07 46.96-37.67 43.07-9.6-3.89-8.29-29.47 2.92-57.15 8.44-20.85 20.1-36.93 29.43-41.94m7.636-23.709c-9.188 11.998-10.516 26.412-2.966 32.194 7.55 5.782 21.12.742 30.308-11.256 9.188-11.998 10.516-26.412 2.966-32.194-7.55-5.782-21.12-.742-30.308 11.256z" class="primary"/></g><path fill="none" stroke="#121331" stroke-linecap="round" stroke-linejoin="round" stroke-width="7" d="M103.672-.691a.267.267 0 0 1 .062.016l.022.001S-.366-200.334-41.637-201.558c-19.84-.588-34.668 26.52-47.571 46.23-7.688 11.744-7.928 26.821-.682 38.853a34.648 34.648 0 0 1 1.894 3.589 33.356 33.356 0 0 1 2.666 18.03l-.875 6.715c-3.557 27.237 14.6 52.58 41.531 57.987l10.364 2.079m67.529 153.559c40.193-19.752 62.712-75.702 62.712-75.702s-.715-18.92.641-27.662c1.253-8.074 7.185-22.786 7.185-22.786S-32.666-48.868-61.812-18.333c-8.681 9.095.16 24.547 5.446 37.138a43.385 43.385 0 0 1 2.183 26.846s0 0 0 0c-8.771 36.842 14.953 73.56 52.142 80.72 11.883 2.288 25.194 4.059 35.26-.887zm-46.882-198.94C-9.714-64.71.576-60.821 9.322-64.77c8.746-3.949 12.635-14.239 8.686-22.985-3.949-8.746-14.239-12.635-22.985-8.686-8.746 3.949-12.635 14.239-8.686 22.985zm-31.008 43.298C-71.039-88.56-51.926-151.683-4.255-173.206m-15.198 144.98c-5.833 70.36 28.231 130.524 77.594 134.617" class="primary" style="display:block" transform="rotate(25 -436.62 492.307)"/></g></g></svg>